<svg width="191" height="60" viewBox="0 0 191 60" fill="none" xmlns="http://www.w3.org/2000/svg">
<g clip-path="url(#clip0_1_48)">
<path d="M83.8625 7.05645C83.8625 7.05645 92.7822 2.62138 101.608 3.12778C110.434 3.63418 117.134 5.70061 117.756 4.76132C118.378 3.82203 115.703 10.6829 103.213 11.7856C91.1703 11.8591 90.4619 8.46129 72.7093 8.26527C72.7093 8.26527 61.144 9.08204 56.5613 20.4597C56.5613 20.4597 61.1151 14.9138 70.7432 14.7423C78.0582 14.5462 93.1508 23.5144 107.318 23.5144C120.698 24.2821 134.439 14.0398 134.439 14.0398C134.439 14.0398 118.023 19.8634 105.62 19.6592C93.2159 19.455 77.5161 13.1251 74.126 12.5043C70.7359 11.8836 66.3773 11.8509 63.3342 13.7131C71.1913 8.49396 83.4938 11.9979 83.4938 11.9979C83.4938 11.9979 102.938 17.0374 110.079 13.2884C114.98 11.2955 119.621 5.75778 121.854 3.08694C121.854 3.08694 108.605 -0.956077 99.4467 0.203737C97.073 0.508215 94.7256 1.03272 92.428 1.77194C89.3277 2.98748 86.4263 4.77298 83.8408 7.05645H83.8625Z" fill="#FA7921"/>
<path d="M0 55.802L12.5266 35.4971H0.730056V30.7925H18.5261V34.9825L6.03561 55.2956H18.8803V60.0002H0V55.802Z" fill="white"/>
<path d="M28.7613 30.7925H45.9357V35.4971H33.4814V42.9787H45.2418V47.6833H33.4814V55.2956H45.9357V60.0002H28.7613V30.7925Z" fill="white"/>
<path d="M56.3444 30.7922H65.958C67.5705 30.7585 69.1697 31.1266 70.642 31.8703C71.9564 32.5363 73.0624 33.6352 73.8152 35.023C74.5947 36.5296 74.9854 38.2527 74.9428 39.9972C74.9884 41.8097 74.5529 43.5961 73.6923 45.1265C72.8611 46.5505 71.6624 47.6512 70.2589 48.2792L76.1933 60.0081H70.8516L65.5026 49.2103H61.0645V59.9999H56.3444V30.7922ZM66.0231 44.5139C67.1476 44.574 68.2472 44.1275 69.0806 43.2724C69.8118 42.3851 70.2183 41.2177 70.2183 40.0053C70.2183 38.7929 69.8118 37.6256 69.0806 36.7383C68.2464 35.8854 67.1467 35.4418 66.0231 35.5049H61.0645V44.4894L66.0231 44.5139Z" fill="white"/>
<path d="M83.754 30.7925H88.8933L95.5 53.2945L102.056 30.8333H107.188L98.1889 60.0002H92.7749L83.754 30.7925Z" fill="white"/>
<path d="M121.572 35.4971H114.879V30.7925H132.95V35.4971H126.358V60.0002H121.601L121.572 35.4971Z" fill="white"/>
<path d="M142.737 30.7925H159.911V35.4971H147.457V42.9787H159.217V47.6833H147.457V55.2956H159.911V60.0002H142.737V30.7925Z" fill="white"/>
<path d="M170.32 30.7925H175.011V43.7628L184.726 30.7925H190.66L181.733 42.7827L191 60.0002H185.449L178.51 47.1361L175.011 51.7998V59.9675H170.291L170.32 30.7925Z" fill="white"/>
</g>
<defs>
<clipPath id="clip0_1_48">
<rect width="191" height="60" fill="white"/>
</clipPath>
</defs>
</svg>
