<svg width="152" height="46" viewBox="0 0 152 46" fill="none" xmlns="http://www.w3.org/2000/svg">
<g clip-path="url(#clip0_1_124)">
<path d="M66.7245 5.41015C66.7245 5.41015 73.8214 2.00994 80.8435 2.39817C87.8656 2.78641 93.1969 4.37068 93.6915 3.65056C94.1861 2.93044 92.0582 8.19044 82.1202 9.0358C72.5389 9.09216 71.9753 6.4872 57.8505 6.33692C57.8505 6.33692 48.6487 6.96311 45.0025 15.6859C45.0025 15.6859 48.6257 11.4341 56.2862 11.3026C62.1063 11.1523 74.1147 18.0279 85.3869 18.0279C96.0322 18.6165 106.965 10.7641 106.965 10.7641C106.965 10.7641 93.9043 15.2288 84.0354 15.0723C74.1664 14.9157 61.675 10.0628 58.9777 9.58685C56.2804 9.11094 52.8125 9.0859 50.3913 10.5136C56.6428 6.51225 66.4312 9.19861 66.4312 9.19861C66.4312 9.19861 81.9017 13.0622 87.5838 10.188C91.4831 8.66008 95.1753 4.41451 96.9524 2.36686C96.9524 2.36686 86.4106 -0.732781 79.1239 0.15641C77.2353 0.389843 75.3676 0.79196 73.5396 1.3587C71.0729 2.29061 68.7644 3.6595 66.7072 5.41015H66.7245Z" fill="#FA7921"/>
<path d="M0 42.7814L9.96669 27.2143H0.580863V23.6074H14.7401V26.8198L4.80219 42.3932H15.0219V46H0V42.7814Z" fill="#003049"/>
<path d="M22.8837 23.6074H36.5484V27.2143H26.6392V32.9502H35.9963V36.5571H26.6392V42.3932H36.5484V46H22.8837V23.6074Z" fill="#003049"/>
<path d="M44.83 23.6076H52.4789C53.7619 23.5818 55.0343 23.864 56.2057 24.4342C57.2515 24.9448 58.1315 25.7872 58.7304 26.8513C59.3507 28.0063 59.6615 29.3273 59.6276 30.6648C59.6639 32.0543 59.3174 33.4239 58.6326 34.5972C57.9713 35.689 57.0176 36.5328 55.9009 37.0143L60.6225 46.0064H56.3725L52.1166 37.7282H48.5854V46.0002H44.83V23.6076ZM52.5307 34.1276C53.4254 34.1736 54.3003 33.8313 54.9634 33.1758C55.5451 32.4955 55.8686 31.6005 55.8686 30.671C55.8686 29.7415 55.5451 28.8465 54.9634 28.1663C54.2997 27.5124 53.4247 27.1723 52.5307 27.2207H48.5854V34.1088L52.5307 34.1276Z" fill="#003049"/>
<path d="M66.6382 23.6074H70.7273L75.9838 40.859L81.2001 23.6387H85.2834L78.1232 46H73.8156L66.6382 23.6074Z" fill="#003049"/>
<path d="M96.7281 27.2143H91.4025V23.6074H105.78V27.2143H100.535V46H96.7511L96.7281 27.2143Z" fill="#003049"/>
<path d="M113.567 23.6074H127.232V27.2143H117.323V32.9502H126.68V36.5571H117.323V42.3932H127.232V46H113.567V23.6074Z" fill="#003049"/>
<path d="M135.514 23.6074H139.246V33.5513L146.976 23.6074H151.697L144.595 32.7999L151.968 46H147.551L142.03 36.1375L139.246 39.7131V45.975H135.491L135.514 23.6074Z" fill="#003049"/>
</g>
<defs>
<clipPath id="clip0_1_124">
<rect width="151.968" height="46" fill="white"/>
</clipPath>
</defs>
</svg>
